<svg width="18" height="18" viewBox="0 0 18 18" fill="none" xmlns="http://www.w3.org/2000/svg">
<path d="M3 8.79425C3 8.50948 3.21162 8.27413 3.48617 8.23689L3.5625 8.23175H14.8125C15.1232 8.23175 15.375 8.48359 15.375 8.79425C15.375 9.07902 15.1634 9.31437 14.8888 9.35162L14.8125 9.35675H3.5625C3.25184 9.35675 3 9.10491 3 8.79425Z" fill="black"/>
<path d="M9.8785 4.67457C9.65836 4.45537 9.65759 4.09922 9.87679 3.87907C10.0761 3.67894 10.3885 3.66012 10.6091 3.82303L10.6723 3.87736L15.2098 8.39536C15.4105 8.59522 15.4288 8.90881 15.2646 9.12936L15.2098 9.19253L10.6723 13.7113C10.4522 13.9305 10.096 13.9298 9.87682 13.7096C9.67753 13.5095 9.66003 13.197 9.82387 12.9771L9.87847 12.9141L14.0155 8.79374L9.8785 4.67457Z" fill="black"/>
</svg>
