<svg width="57" height="56" viewBox="0 0 57 56" fill="none" xmlns="http://www.w3.org/2000/svg">
<path fill-rule="evenodd" clip-rule="evenodd" d="M18.2295 4.66479H38.4595C46.3695 4.66479 51.6662 10.2181 51.6662 18.4781V37.5438C51.6662 45.7805 46.3695 51.3315 38.4595 51.3315H18.2295C10.3195 51.3315 4.99951 45.7805 4.99951 37.5438V18.4781C4.99951 10.2181 10.3195 4.66479 18.2295 4.66479ZM35.3562 34.9981C36.1495 34.2071 36.1495 32.9238 35.3562 32.1305L31.2028 27.9771L35.3562 23.8215C36.1495 23.0305 36.1495 21.7238 35.3562 20.9305C34.5628 20.1348 33.2795 20.1348 32.4628 20.9305L28.3328 25.0815L24.1795 20.9305C23.3628 20.1348 22.0795 20.1348 21.2862 20.9305C20.4928 21.7238 20.4928 23.0305 21.2862 23.8215L25.4395 27.9771L21.2862 32.1071C20.4928 32.9238 20.4928 34.2071 21.2862 34.9981C21.6828 35.3948 22.2195 35.6071 22.7328 35.6071C23.2695 35.6071 23.7828 35.3948 24.1795 34.9981L28.3328 30.8705L32.4862 34.9981C32.8828 35.4205 33.3962 35.6071 33.9095 35.6071C34.4462 35.6071 34.9595 35.3948 35.3562 34.9981Z" fill="#E63946"/>
</svg>
