<svg width="24" height="24" viewBox="0 0 24 24" fill="none" xmlns="http://www.w3.org/2000/svg">
<path fill-rule="evenodd" clip-rule="evenodd" d="M12.2473 21.9999C10.8923 21.9999 9.57133 21.9849 8.26433 21.9579C6.59233 21.9249 5.43533 20.8409 5.24633 19.1289C4.93133 16.2889 4.39233 9.59491 4.38733 9.52791C4.35333 9.11491 4.66133 8.75291 5.07433 8.71991C5.48133 8.70891 5.84933 8.99491 5.88233 9.40691C5.88733 9.47491 6.42533 16.1459 6.73733 18.9639C6.84433 19.9369 7.36933 20.4389 8.29533 20.4579C10.7953 20.5109 13.3463 20.5139 16.0963 20.4639C17.0803 20.4449 17.6123 19.9529 17.7223 18.9569C18.0323 16.1629 18.5723 9.47491 18.5783 9.40691C18.6113 8.99491 18.9763 8.70691 19.3853 8.71991C19.7983 8.75391 20.1063 9.11491 20.0733 9.52791C20.0673 9.59591 19.5253 16.3069 19.2133 19.1219C19.0193 20.8689 17.8653 21.9319 16.1233 21.9639C14.7903 21.9869 13.5043 21.9999 12.2473 21.9999Z" fill="#E63946"/>
<path fill-rule="evenodd" clip-rule="evenodd" d="M20.708 6.98926H3.75C3.336 6.98926 3 6.65326 3 6.23926C3 5.82526 3.336 5.48926 3.75 5.48926H20.708C21.122 5.48926 21.458 5.82526 21.458 6.23926C21.458 6.65326 21.122 6.98926 20.708 6.98926Z" fill="#E63946"/>
<path fill-rule="evenodd" clip-rule="evenodd" d="M17.4406 6.98924C16.3026 6.98924 15.3146 6.17824 15.0906 5.06224L14.8476 3.84624C14.7966 3.66124 14.5856 3.50024 14.3456 3.50024H10.1126C9.87258 3.50024 9.66158 3.66124 9.60058 3.89224L9.36758 5.06224C9.14458 6.17824 8.15558 6.98924 7.01758 6.98924C6.60358 6.98924 6.26758 6.65324 6.26758 6.23924C6.26758 5.82524 6.60358 5.48924 7.01758 5.48924C7.44358 5.48924 7.81358 5.18524 7.89758 4.76724L8.14058 3.55124C8.38758 2.61924 9.19458 2.00024 10.1126 2.00024H14.3456C15.2636 2.00024 16.0706 2.61924 16.3076 3.50624L16.5616 4.76724C16.6446 5.18524 17.0146 5.48924 17.4406 5.48924C17.8546 5.48924 18.1906 5.82524 18.1906 6.23924C18.1906 6.65324 17.8546 6.98924 17.4406 6.98924Z" fill="#E63946"/>
</svg>
