<svg width="20" height="20" viewBox="0 0 20 20" fill="none" xmlns="http://www.w3.org/2000/svg">
<path fill-rule="evenodd" clip-rule="evenodd" d="M10.0001 2.91675C6.09425 2.91675 2.91675 6.09425 2.91675 10.0001C2.91675 13.9059 6.09425 17.0834 10.0001 17.0834C13.9059 17.0834 17.0834 13.9059 17.0834 10.0001C17.0834 6.09425 13.9059 2.91675 10.0001 2.91675ZM10.0001 18.3334C5.40508 18.3334 1.66675 14.5951 1.66675 10.0001C1.66675 5.40508 5.40508 1.66675 10.0001 1.66675C14.5951 1.66675 18.3334 5.40508 18.3334 10.0001C18.3334 14.5951 14.5951 18.3334 10.0001 18.3334Z" fill="black"/>
<path fill-rule="evenodd" clip-rule="evenodd" d="M9.99996 12.3282C9.83413 12.3282 9.67413 12.2624 9.55746 12.1441L6.66496 9.23907C6.42079 8.99407 6.42246 8.59823 6.66663 8.3549C6.91163 8.11157 7.30746 8.11157 7.55079 8.35657L9.99996 10.8182L12.45 8.35657C12.6933 8.11157 13.0891 8.11157 13.3341 8.3549C13.5783 8.59823 13.5791 8.99407 13.3358 9.23907L10.4425 12.1441C10.3258 12.2624 10.1658 12.3282 9.99996 12.3282Z" fill="black"/>
</svg>
