<svg width="56" height="56" viewBox="0 0 56 56" fill="none" xmlns="http://www.w3.org/2000/svg">
<path fill-rule="evenodd" clip-rule="evenodd" d="M17.8969 4.6665H38.1269C46.0369 4.6665 51.3335 10.2198 51.3335 18.4798V37.5455C51.3335 45.7798 46.0369 51.3332 38.1269 51.3332H17.8969C9.98687 51.3332 4.66687 45.7798 4.66687 37.5455V18.4798C4.66687 10.2198 9.98687 4.6665 17.8969 4.6665ZM26.6702 34.9765L37.7535 23.8932C38.5469 23.0998 38.5469 21.8165 37.7535 20.9998C36.9602 20.2065 35.6535 20.2065 34.8602 20.9998L25.2235 30.6365L21.1402 26.5532C20.3469 25.7598 19.0402 25.7598 18.2469 26.5532C17.4535 27.3465 17.4535 28.6298 18.2469 29.4465L23.8002 34.9765C24.1969 35.3732 24.7102 35.5598 25.2235 35.5598C25.7602 35.5598 26.2735 35.3732 26.6702 34.9765Z" fill="#0AC229"/>
</svg>
