<svg width="57" height="56" viewBox="0 0 57 56" fill="none" xmlns="http://www.w3.org/2000/svg">
<path fill-rule="evenodd" clip-rule="evenodd" d="M18.563 4.66699H38.793C46.703 4.66699 51.9997 10.218 51.9997 18.478V37.5413C51.9997 45.7803 46.703 51.3337 38.793 51.3337H18.563C10.653 51.3337 5.33301 45.7803 5.33301 37.5413V18.478C5.33301 10.218 10.653 4.66699 18.563 4.66699ZM37.0197 36.8903C37.603 36.8903 38.1863 36.587 38.513 36.027C39.0263 35.208 38.7463 34.1347 37.9063 33.6237L29.5997 28.677V17.8947C29.5997 16.9403 28.8297 16.1447 27.8497 16.1447C26.893 16.1447 26.0997 16.9403 26.0997 17.8947V29.6803C26.0997 30.287 26.4263 30.8703 26.963 31.1737L36.1097 36.6337C36.3897 36.8203 36.7163 36.8903 37.0197 36.8903Z" fill="#EACB00"/>
</svg>
